<svg width="20" height="22" viewBox="0 0 20 22" fill="none" xmlns="http://www.w3.org/2000/svg">
<path d="M14.6667 7.00003V5.03337C14.6667 4.42053 14.546 3.8137 14.3115 3.24751C14.077 2.68132 13.7333 2.16687 13.2999 1.73353C12.8666 1.30019 12.3521 0.95645 11.7859 0.721928C11.2198 0.487406 10.6129 0.366699 10.0001 0.366699C9.38725 0.366699 8.78041 0.487406 8.21422 0.721928C7.64804 0.95645 7.13359 1.30019 6.70025 1.73353C6.26691 2.16687 5.92317 2.68132 5.68864 3.24751C5.45412 3.8137 5.33341 4.42053 5.33341 5.03337V8.33337H5.59382C5.59382 8.33337 5.82392 8.33337 6.00073 8.33337C6.17754 8.33337 6.44214 8.33337 6.47766 8.33337H6.66675H13.3334V7.00003H6.66675V5.03337C6.66675 4.14931 7.01794 3.30146 7.64306 2.67634C8.26818 2.05122 9.11603 1.70003 10.0001 1.70003C10.8841 1.70003 11.732 2.05122 12.3571 2.67634C12.9822 3.30146 13.3334 4.14931 13.3334 5.03337V8.33337H13.6151C13.6151 8.33337 13.8239 8.33337 14.0007 8.33337C14.1775 8.33337 14.2894 8.33337 14.2894 8.33337H14.532H14.6375H14.6667H18.0001V20.3334H2.00008V8.33337H5.33341V7.00003H0.666748V20.3934C0.666748 20.7311 0.800902 21.055 1.0397 21.2938C1.27849 21.5325 1.60237 21.6667 1.94008 21.6667H18.0601C18.3978 21.6667 18.7217 21.5325 18.9605 21.2938C19.1993 21.055 19.3334 20.7311 19.3334 20.3934V7.00003H14.6667Z" fill="#2C2D2E"/>
</svg>
