<svg width="22" height="20" viewBox="0 0 22 20" fill="none" xmlns="http://www.w3.org/2000/svg">
<path d="M21 6.862C21.0034 8.40075 20.4106 9.881 19.346 10.992C16.905 13.523 14.537 16.162 12.006 18.6C11.425 19.15 10.504 19.13 9.94899 18.555L2.65399 10.993C0.448994 8.707 0.448994 5.017 2.65399 2.732C3.17514 2.185 3.80193 1.74952 4.49638 1.45197C5.19084 1.15442 5.93848 1.001 6.69399 1.001C7.44951 1.001 8.19715 1.15442 8.8916 1.45197C9.58606 1.74952 10.2129 2.185 10.734 2.732L11 3.006L11.265 2.732C11.7872 2.18629 12.4142 1.75161 13.1084 1.454C13.8026 1.15639 14.5497 1.00197 15.305 1C16.825 1 18.278 1.624 19.345 2.732C20.41 3.84284 21.0032 5.32311 21 6.862V6.862Z" stroke="#2C2D2E" stroke-width="1.5" stroke-linejoin="round"/>
</svg>
