<svg width="24" height="24" viewBox="0 0 24 24" fill="none" xmlns="http://www.w3.org/2000/svg">
<g clip-path="url(#clip0_2590_26251)">
<path fill-rule="evenodd" clip-rule="evenodd" d="M12 24C18.6274 24 24 18.6274 24 12C24 5.37258 18.6274 0 12 0C5.37258 0 0 5.37258 0 12C0 18.6274 5.37258 24 12 24Z" fill="#001C3D" fill-opacity="0.08"/>
<path d="M14.3571 9.64279C14.3571 8.34047 13.3023 7.28564 11.9999 7.28564C10.6976 7.28564 9.64279 8.34047 9.64279 9.64279C9.64279 10.9451 10.6976 11.9999 11.9999 11.9999C13.3023 11.9999 14.3571 10.9451 14.3571 9.64279ZM7.28564 15.5274V16.1399C7.28564 16.4571 7.54276 16.7142 7.85993 16.7142H16.1399C16.4571 16.7142 16.7142 16.4571 16.7142 16.1399V15.5274C16.7142 13.4505 13.5733 12.8571 11.9999 12.8571C10.4265 12.8571 7.28564 13.4505 7.28564 15.5274Z" fill="#AEB7C2"/>
</g>
<defs>
<clipPath id="clip0_2590_26251">
<rect width="24" height="24" fill="white"/>
</clipPath>
</defs>
</svg>
