<svg width="24" height="24" viewBox="0 0 24 24" fill="none" xmlns="http://www.w3.org/2000/svg">
<path fill-rule="evenodd" clip-rule="evenodd" d="M5.33344 9.6934C4.89215 9.92033 4.50997 10.252 4.22216 10.6623C3.83701 11.2114 3.64198 11.8715 3.66678 12.5417V20.3334H6.16678L7.00011 18.6667H17.0001L17.8335 20.3334H20.3335V12.5417C20.3583 11.8715 20.1632 11.2114 19.778 10.6623C19.4903 10.252 19.108 9.92033 18.6668 9.6934V7.41675C18.6668 6.2519 18.6668 5.66946 18.4765 5.21004C18.2227 4.59747 17.736 4.11078 17.1235 3.85705C16.664 3.66675 16.0816 3.66675 14.9168 3.66675H9.08344C7.91859 3.66675 7.33617 3.66675 6.87673 3.85705C6.26417 4.11078 5.77748 4.59747 5.52375 5.21004C5.33344 5.66946 5.33344 6.25189 5.33344 7.41675V9.6934ZM15.7501 8.9465C13.2676 8.52895 10.7325 8.52895 8.25011 8.9465V6.80008C8.24848 6.72101 8.26319 6.64246 8.2933 6.56934C8.32341 6.49621 8.36828 6.43008 8.42511 6.37508C8.53814 6.26916 8.68688 6.20966 8.84178 6.20841H8.96678C9.96478 6.4231 10.9799 6.54859 12.0001 6.58341C13.0201 6.55133 14.0352 6.42862 15.0335 6.21675H15.1585C15.3134 6.218 15.4621 6.2775 15.5751 6.38341C15.632 6.43841 15.6768 6.50454 15.707 6.57766C15.737 6.6508 15.7517 6.72935 15.7501 6.80841V8.9465ZM5.33344 12.5417V13.6667H18.6668V12.5417C18.6746 12.2437 18.5887 11.9507 18.4213 11.7041C18.2539 11.4574 18.0133 11.2695 17.7335 11.1667C13.9856 10.0999 10.0146 10.0999 6.26678 11.1667C5.98693 11.2695 5.74635 11.4574 5.57893 11.7041C5.41149 11.9507 5.32563 12.2437 5.33344 12.5417Z" fill="#AE5FFF"/>
</svg>
