<svg width="24" height="24" viewBox="0 0 24 24" fill="none" xmlns="http://www.w3.org/2000/svg">
<path fill-rule="evenodd" clip-rule="evenodd" d="M15.4689 5.93324C16.0407 6.03676 16.6075 6.17023 17.1667 6.33333C17.5052 6.43983 17.8011 6.65164 18.0109 6.93793C18.2207 7.22422 18.3337 7.57003 18.3333 7.925V11.5C18.3333 11.5 18.3333 13.1667 15.8333 13.1667H9.16667C6.68021 13.1667 6.66674 11.518 6.66667 11.5002V7.925C6.66629 7.57003 6.77925 7.22422 6.9891 6.93793C7.19895 6.65164 7.49473 6.43983 7.83333 6.33333C8.39253 6.17023 8.95922 6.03676 9.53105 5.93324L9.61667 6.19167C9.72705 6.52426 9.93946 6.81359 10.2237 7.01855C10.508 7.22351 10.8496 7.33365 11.2 7.33333H13.8C14.1504 7.33365 14.4921 7.22351 14.7763 7.01855C15.0605 6.81359 15.2729 6.52426 15.3833 6.19167L15.4689 5.93324ZM12.5 4C10.7628 4 9.03439 4.24692 7.36667 4.73333C6.68186 4.94084 6.08201 5.36322 5.6558 5.93799C5.22959 6.51277 4.99966 7.20944 5 7.925V20.6667H8.28333L9.11667 19H15.9L16.7333 20.6667H20V7.925C20.0003 7.20944 19.7704 6.51277 19.3442 5.93799C18.918 5.36322 18.3182 4.94084 17.6333 4.73333C15.9656 4.24692 14.2373 4 12.5 4ZM6.66667 14.8333V16.5H10C10 16.058 9.82441 15.6341 9.51185 15.3215C9.19928 15.0089 8.77536 14.8333 8.33333 14.8333H6.66667ZM18.3333 16.5V14.8333H16.6667C16.2247 14.8333 15.8007 15.0089 15.4882 15.3215C15.1756 15.6341 15 16.058 15 16.5H18.3333Z" fill="#AE5FFF"/>
</svg>
