<svg width="24" height="24" viewBox="0 0 24 24" fill="none" xmlns="http://www.w3.org/2000/svg">
<path fill-rule="evenodd" clip-rule="evenodd" d="M5.6199 5.76434C7.17582 4.69272 9.00348 4.08378 10.8912 4.00804C12.7789 3.9323 14.6495 4.39286 16.2862 5.33637C17.9231 6.2799 19.2591 7.66777 20.1396 9.33928C21.0201 11.0108 21.4091 12.8975 21.2616 14.781C21.2567 14.8771 21.2321 14.9849 21.2268 15.0023C20.7927 15.7915 17.2952 14.551 13.2308 12.2795L11.0982 15.9991H9.1645L11.7962 11.4476C7.83956 9.0669 5.07115 6.651 5.4949 5.89767C5.52896 5.84667 5.57119 5.80162 5.6199 5.76434ZM13.2532 10.606C14.4527 11.3085 15.6907 11.9429 16.9616 12.5061C17.6866 9.75601 17.4032 7.08101 15.8116 6.16434C14.2199 5.24768 11.7616 6.33934 9.7449 8.33934C10.8737 9.15591 12.0448 9.91252 13.2532 10.606ZM21.0333 8.40575C21.0318 8.42794 21.0318 8.45022 21.0333 8.47242C21.0348 8.45022 21.0348 8.42794 21.0333 8.40575ZM6.16667 13.4974L8.66667 16.8307H16.1667C16.6087 16.8307 17.0326 17.0064 17.3452 17.3189C17.6577 17.6315 17.8333 18.0554 17.8333 18.4974V20.9974H16.1667L14.5 19.3307H7L5.33333 20.9974H3.66667L5.33333 18.1891L2 13.4974H6.16667Z" fill="url(#paint0_linear_2642_20942)"/>
<defs>
<linearGradient id="paint0_linear_2642_20942" x1="2" y1="4" x2="23.3442" y2="5.0436" gradientUnits="userSpaceOnUse">
<stop stop-color="#AE5FFF"/>
<stop offset="0.0001" stop-color="#AE5FFF"/>
<stop offset="0.0002" stop-color="#AE5FFF"/>
<stop offset="1" stop-color="#6B1EFF"/>
</linearGradient>
</defs>
</svg>
