<svg width="24" height="24" viewBox="0 0 24 24" fill="none" xmlns="http://www.w3.org/2000/svg">
<path fill-rule="evenodd" clip-rule="evenodd" d="M13.8 2H11.2C10.8496 1.99968 10.508 2.10983 10.2237 2.31478C9.93946 2.51974 9.72705 2.80908 9.61666 3.14167L9.35257 3.93886C8.68336 4.05548 8.02035 4.20934 7.36667 4.4C6.68186 4.60751 6.082 5.02988 5.6558 5.60466C5.22959 6.17944 4.99966 6.87611 5 7.59167V15.575C4.99966 16.2906 5.22959 16.9873 5.6558 17.562C6.082 18.1367 6.68186 18.5592 7.36667 18.7667L7.875 18.9083L8.85988 17.4532C8.96772 17.3399 9.09347 17.2442 9.23258 17.1703C9.44318 17.0585 9.67798 17 9.91643 17H9.91666H15.0167C15.2602 17.0007 15.4996 17.062 15.7135 17.1784C15.9273 17.2948 16.1088 17.4626 16.2417 17.6667L17.075 18.9167C17.2667 18.875 17.45 18.825 17.6333 18.7667C18.3182 18.5592 18.918 18.1367 19.3442 17.562C19.7704 16.9873 20.0003 16.2906 20 15.575V7.59167C20.0003 6.87611 19.7704 6.17944 19.3442 5.60466C18.918 5.02988 18.3182 4.60751 17.6333 4.4C16.9797 4.20934 16.3167 4.05548 15.6474 3.93886L15.3833 3.14167C15.2729 2.80908 15.0605 2.51974 14.7763 2.31478C14.4921 2.10983 14.1504 1.99968 13.8 2ZM18.3333 9.95933V7.59167C18.3337 7.2367 18.2207 6.89089 18.0109 6.6046C17.8011 6.31831 17.5052 6.10649 17.1667 6C15.6506 5.5578 14.0792 5.33333 12.5 5.33333C10.9207 5.33333 9.34944 5.5578 7.83333 6C7.49472 6.10649 7.19895 6.31831 6.9891 6.6046C6.77925 6.89089 6.66629 7.2367 6.66667 7.59167V9.95933C7.03521 10.1766 7.56673 10.3333 8.33333 10.3333H16.6667C17.4332 10.3333 17.9648 10.1766 18.3333 9.95933ZM6.66667 12.8333V14.5H10C10 14.058 9.82441 13.6341 9.51185 13.3215C9.19928 13.0089 8.77536 12.8333 8.33333 12.8333H6.66667ZM18.3333 14.5V12.8333H16.6667C16.2247 12.8333 15.8007 13.0089 15.4882 13.3215C15.1756 13.6341 15 14.058 15 14.5H18.3333ZM13.3333 17.8333H14.425C14.5982 17.8337 14.7678 17.8822 14.915 17.9734C15.0622 18.0647 15.181 18.1951 15.2583 18.35L16.6667 21.1667H14.1667L13.3333 17.8333ZM10.575 17.8333H11.6667L10.8333 21.1667H8.33333L9.74167 18.35C9.81897 18.1951 9.93785 18.0647 10.085 17.9734C10.2322 17.8822 10.4018 17.8337 10.575 17.8333Z" fill="#AE5FFF"/>
</svg>
