<svg width="18" height="22" viewBox="0 0 18 22" fill="none" xmlns="http://www.w3.org/2000/svg">
<path d="M6 1H12M2 6L16 20.5M9 9V13M3.19 7.5C1.7795 8.99151 0.996332 10.9682 1.00254 13.021C1.00875 15.0738 1.80385 17.0457 3.22335 18.5287C4.64284 20.0116 6.57809 20.8921 8.62868 20.9881C10.6793 21.084 12.6883 20.388 14.24 19.044M16.42 16C17.0031 14.561 17.1548 12.9834 16.8567 11.4596C16.5586 9.93582 15.8235 8.53173 14.7411 7.41856C13.6586 6.30539 12.2757 5.53127 10.7608 5.19059C9.24602 4.84992 7.66478 4.95743 6.21 5.5" stroke="#2C2D2E" stroke-width="1.5" stroke-linecap="round" stroke-linejoin="round"/>
</svg>
