<svg width="24" height="24" viewBox="0 0 24 24" fill="none" xmlns="http://www.w3.org/2000/svg">
<g clip-path="url(#clip0_1401_5038)">
<path d="M12 14.625C13.4497 14.625 14.625 13.4497 14.625 12C14.625 10.5503 13.4497 9.375 12 9.375C10.5503 9.375 9.375 10.5503 9.375 12C9.375 13.4497 10.5503 14.625 12 14.625Z" stroke="#2C2D2E" stroke-width="1.3" stroke-linecap="round" stroke-linejoin="round"/>
<path d="M10.7812 9.675C10.0969 8.23125 9.375 6.43125 9.375 5.25C9.375 4.55381 9.65156 3.88613 10.1438 3.39384C10.6361 2.90156 11.3038 2.625 12 2.625C12.6962 2.625 13.3639 2.90156 13.8562 3.39384C14.3484 3.88613 14.625 4.55381 14.625 5.25C14.625 6.43125 13.9031 8.23125 13.2188 9.675" stroke="#2C2D2E" stroke-width="1.3" stroke-linecap="round" stroke-linejoin="round"/>
<path d="M9.37573 11.8876C7.78198 11.7658 5.86011 11.4845 4.83823 10.8939C4.27651 10.5264 3.87693 9.95765 3.72162 9.30461C3.56631 8.65156 3.66709 7.96383 4.00322 7.38279C4.33936 6.80175 4.88532 6.37156 5.52886 6.18066C6.1724 5.98976 6.86463 6.05265 7.46323 6.3564C8.48511 6.93765 9.68511 8.46577 10.5945 9.78765" stroke="#2C2D2E" stroke-width="1.3" stroke-linecap="round" stroke-linejoin="round"/>
<path d="M10.5938 14.2123C9.68443 15.5342 8.48443 17.0623 7.46255 17.6436C7.16394 17.8389 6.82863 17.9714 6.4771 18.0328C6.12557 18.0942 5.76522 18.0833 5.41805 18.0007C5.07089 17.9181 4.7442 17.7657 4.45795 17.5526C4.17171 17.3395 3.93191 17.0703 3.75322 16.7614C3.57452 16.4525 3.46069 16.1104 3.41866 15.7561C3.37663 15.4017 3.4073 15.0425 3.50878 14.7004C3.61027 14.3583 3.78044 14.0404 4.00891 13.7663C4.23737 13.4922 4.51933 13.2675 4.83755 13.1061C5.85943 12.5154 7.7813 12.2342 9.37505 12.1123" stroke="#2C2D2E" stroke-width="1.3" stroke-linecap="round" stroke-linejoin="round"/>
<path d="M13.2188 14.3252C13.9031 15.7689 14.625 17.5689 14.625 18.7502C14.625 19.4464 14.3484 20.1141 13.8562 20.6064C13.3639 21.0986 12.6962 21.3752 12 21.3752C11.3038 21.3752 10.6361 21.0986 10.1438 20.6064C9.65156 20.1141 9.375 19.4464 9.375 18.7502C9.375 17.5689 10.0969 15.7689 10.7812 14.3252" stroke="#2C2D2E" stroke-width="1.3" stroke-linecap="round" stroke-linejoin="round"/>
<path d="M14.625 12.1123C16.2188 12.2342 18.1406 12.5154 19.1625 13.1061C19.7242 13.4736 20.1238 14.0423 20.2791 14.6953C20.4344 15.3484 20.3336 16.0361 19.9975 16.6172C19.6614 17.1982 19.1154 17.6284 18.4719 17.8193C17.8283 18.0102 17.1361 17.9473 16.5375 17.6436C15.5156 17.0623 14.3156 15.5342 13.4062 14.2123" stroke="#2C2D2E" stroke-width="1.3" stroke-linecap="round" stroke-linejoin="round"/>
<path d="M13.4062 9.78765C14.3156 8.46577 15.5156 6.93765 16.5375 6.3564C17.1361 6.05265 17.8283 5.98976 18.4719 6.18066C19.1154 6.37156 19.6614 6.80175 19.9975 7.38279C20.3336 7.96383 20.4344 8.65156 20.2791 9.30461C20.1238 9.95765 19.7242 10.5264 19.1625 10.8939C18.1406 11.4845 16.2188 11.7658 14.625 11.8876" stroke="#2C2D2E" stroke-width="1.3" stroke-linecap="round" stroke-linejoin="round"/>
</g>
<defs>
<clipPath id="clip0_1401_5038">
<rect width="24" height="24" fill="white"/>
</clipPath>
</defs>
</svg>
