<svg width="24" height="24" viewBox="0 0 24 24" fill="none" xmlns="http://www.w3.org/2000/svg">
<path fill-rule="evenodd" clip-rule="evenodd" d="M19.6666 3.16227C20.2833 2.97061 20.7583 2.94561 20.9166 3.10394C21.0749 3.26227 21.0499 3.73727 20.8583 4.35393C20.4474 5.60546 19.7546 6.74588 18.8333 7.68725L17.1666 9.35391L17.9999 20.1872L17.1666 21.0205L13.5193 12.9963C12.8389 13.6495 12.108 14.2484 11.3333 14.7872C10.8681 15.1467 10.3778 15.4702 9.86689 15.7556L10.5 20.1872L9.66663 21.0205L7.16665 16.8539L3 14.3539L3.83333 13.5205L8.27015 14.1544C8.55475 13.6439 8.87648 13.1534 9.2333 12.6872C9.85829 11.7937 10.561 10.9571 11.3333 10.1872L16.3333 5.18726C17.2747 4.2659 18.4151 3.57308 19.6666 3.16227ZM3.83333 6.02059L3 6.85392L9.99163 10.0289C10.9566 8.84802 12.0156 7.7472 13.1583 6.73726L3.83333 6.02059Z" fill="#2C2D2E"/>
</svg>
