<svg width="15" height="8" viewBox="0 0 15 8" fill="none" xmlns="http://www.w3.org/2000/svg">
<path d="M14.8283 5.50001V7.00001C14.8283 7.13262 14.7756 7.25979 14.6818 7.35356C14.5881 7.44733 14.4609 7.50001 14.3283 7.50001H3.31577C2.77782 7.50187 2.25376 7.32929 1.82217 7.00814C1.39059 6.68699 1.07476 6.23458 0.922022 5.71876L0.040772 2.78751C-0.00299265 2.6375 -0.0116633 2.47944 0.0154308 2.32554C0.0425248 2.17165 0.104657 2.02605 0.197022 1.90001C0.291472 1.77568 0.413394 1.67489 0.553259 1.6055C0.693123 1.53611 0.84714 1.5 1.00327 1.50001H2.07827C2.15127 1.50016 2.22332 1.51649 2.28924 1.54783C2.35517 1.57917 2.41332 1.62474 2.45952 1.68126L3.55952 3.00001H4.63452L4.07202 1.31876C4.02139 1.16818 4.00735 1.00771 4.03108 0.850636C4.05481 0.693558 4.11562 0.544394 4.20847 0.415497C4.30133 0.2866 4.42355 0.18168 4.56503 0.109426C4.70651 0.0371719 4.86316 -0.000336611 5.02202 6.83766e-06H6.07827C6.14771 -0.00035857 6.21644 0.0139255 6.27998 0.0419263C6.34352 0.0699271 6.40044 0.111015 6.44702 0.162507L9.04702 3.00001H12.3283C12.9913 3.00001 13.6272 3.2634 14.096 3.73224C14.5649 4.20108 14.8283 4.83697 14.8283 5.50001ZM13.8283 5.50001C13.8266 5.10269 13.6681 4.72211 13.3871 4.44116C13.1062 4.16022 12.7256 4.00165 12.3283 4.00001H8.82827C8.75884 4.00037 8.69011 3.98609 8.62657 3.95809C8.56303 3.93009 8.50611 3.889 8.45952 3.83751L5.85952 1.00001H5.02202L5.80327 3.34376C5.82774 3.41892 5.83427 3.49878 5.82233 3.57692C5.81039 3.65506 5.78032 3.72933 5.73452 3.79376C5.68835 3.85823 5.62732 3.91064 5.55661 3.94654C5.48589 3.98244 5.40757 4.00078 5.32827 4.00001H3.32827C3.25528 3.99986 3.18322 3.98352 3.1173 3.95218C3.05138 3.92084 2.99322 3.87527 2.94702 3.81876L1.84702 2.50001H0.997022L1.87827 5.43126C1.97015 5.74085 2.15989 6.01233 2.41905 6.20501C2.67821 6.39769 2.99284 6.50119 3.31577 6.50001H13.8283V5.50001Z" fill="#2C2D2E"/>
</svg>
