<svg width="24" height="24" viewBox="0 0 24 24" fill="none" xmlns="http://www.w3.org/2000/svg">
<path d="M7 16.01L7.01 15.999M17 16.01L17.01 15.999M21 8V6C21 4.93913 20.5786 3.92172 19.8284 3.17157C19.0783 2.42143 18.0609 2 17 2H7C5.93913 2 4.92172 2.42143 4.17157 3.17157C3.42143 3.92172 3 4.93913 3 6V8M7 8H17M3 12H21V19C21 19.2652 20.8946 19.5196 20.7071 19.7071C20.5196 19.8946 20.2652 20 20 20H4C3.73478 20 3.48043 19.8946 3.29289 19.7071C3.10536 19.5196 3 19.2652 3 19V12Z" stroke="#2C2D2E" stroke-width="1.5" stroke-linecap="round" stroke-linejoin="round"/>
<path d="M4 20H8V22C8 22.2652 7.89464 22.5196 7.70711 22.7071C7.51957 22.8946 7.26522 23 7 23H5C4.73478 23 4.48043 22.8946 4.29289 22.7071C4.10536 22.5196 4 22.2652 4 22V20ZM16 20H20V22C20 22.2652 19.8946 22.5196 19.7071 22.7071C19.5196 22.8946 19.2652 23 19 23H17C16.7348 23 16.4804 22.8946 16.2929 22.7071C16.1054 22.5196 16 22.2652 16 22V20Z" fill="#2C2D2E"/>
</svg>
