<svg width="24" height="24" viewBox="0 0 24 24" fill="none" xmlns="http://www.w3.org/2000/svg">
<g clip-path="url(#clip0_2633_16099)">
<path d="M12 14.625C13.4497 14.625 14.625 13.4497 14.625 12C14.625 10.5503 13.4497 9.375 12 9.375C10.5503 9.375 9.375 10.5503 9.375 12C9.375 13.4497 10.5503 14.625 12 14.625Z" stroke="#2C2D2E" stroke-width="1.3" stroke-linecap="round" stroke-linejoin="round"/>
<path d="M10.7812 9.675C10.0969 8.23125 9.375 6.43125 9.375 5.25C9.375 4.55381 9.65156 3.88613 10.1438 3.39384C10.6361 2.90156 11.3038 2.625 12 2.625C12.6962 2.625 13.3639 2.90156 13.8562 3.39384C14.3484 3.88613 14.625 4.55381 14.625 5.25C14.625 6.43125 13.9031 8.23125 13.2188 9.675" stroke="#2C2D2E" stroke-width="1.3" stroke-linecap="round" stroke-linejoin="round"/>
<path d="M9.375 11.8875C7.78125 11.7657 5.85938 11.4844 4.8375 10.8938C4.27578 10.5263 3.8762 9.95753 3.72089 9.30448C3.56558 8.65144 3.66636 7.9637 4.00249 7.38267C4.33863 6.80163 4.88459 6.37144 5.52813 6.18054C6.17167 5.98964 6.8639 6.05253 7.4625 6.35628C8.48438 6.93753 9.68438 8.46565 10.5938 9.78753" stroke="#2C2D2E" stroke-width="1.3" stroke-linecap="round" stroke-linejoin="round"/>
<path d="M10.5938 14.2125C9.68443 15.5344 8.48443 17.0625 7.46255 17.6438C7.16394 17.8392 6.82863 17.9716 6.4771 18.033C6.12557 18.0944 5.76522 18.0835 5.41805 18.0009C5.07089 17.9184 4.7442 17.7659 4.45795 17.5528C4.17171 17.3397 3.93191 17.0705 3.75322 16.7616C3.57452 16.4528 3.46069 16.1107 3.41866 15.7563C3.37663 15.402 3.4073 15.0427 3.50878 14.7006C3.61027 14.3585 3.78044 14.0407 4.00891 13.7666C4.23737 13.4924 4.51933 13.2678 4.83755 13.1063C5.85943 12.5157 7.7813 12.2344 9.37505 12.1125" stroke="#2C2D2E" stroke-width="1.3" stroke-linecap="round" stroke-linejoin="round"/>
<path d="M13.2188 14.325C13.9031 15.7687 14.625 17.5687 14.625 18.75C14.625 19.4461 14.3484 20.1138 13.8562 20.6061C13.3639 21.0984 12.6962 21.375 12 21.375C11.3038 21.375 10.6361 21.0984 10.1438 20.6061C9.65156 20.1138 9.375 19.4461 9.375 18.75C9.375 17.5687 10.0969 15.7687 10.7812 14.325" stroke="#2C2D2E" stroke-width="1.3" stroke-linecap="round" stroke-linejoin="round"/>
<path d="M14.625 12.1125C16.2188 12.2344 18.1406 12.5157 19.1625 13.1063C19.7242 13.4738 20.1238 14.0425 20.2791 14.6956C20.4344 15.3486 20.3336 16.0364 19.9975 16.6174C19.6614 17.1984 19.1154 17.6286 18.4719 17.8195C17.8283 18.0104 17.1361 17.9476 16.5375 17.6438C15.5156 17.0625 14.3156 15.5344 13.4062 14.2125" stroke="#2C2D2E" stroke-width="1.3" stroke-linecap="round" stroke-linejoin="round"/>
<path d="M13.4062 9.78753C14.3156 8.46565 15.5156 6.93753 16.5375 6.35628C17.1361 6.05253 17.8283 5.98964 18.4719 6.18054C19.1154 6.37144 19.6614 6.80163 19.9975 7.38267C20.3336 7.9637 20.4344 8.65144 20.2791 9.30448C20.1238 9.95753 19.7242 10.5263 19.1625 10.8938C18.1406 11.4844 16.2188 11.7657 14.625 11.8875" stroke="#2C2D2E" stroke-width="1.3" stroke-linecap="round" stroke-linejoin="round"/>
</g>
<defs>
<clipPath id="clip0_2633_16099">
<rect width="24" height="24" fill="white"/>
</clipPath>
</defs>
</svg>
