<svg width="40" height="40" viewBox="0 0 40 40" fill="none" xmlns="http://www.w3.org/2000/svg">
<g clip-path="url(#clip0_2590_26305)">
<path d="M34 0H6C2.68629 0 0 2.68629 0 6V34C0 37.3137 2.68629 40 6 40H34C37.3137 40 40 37.3137 40 34V6C40 2.68629 37.3137 0 34 0Z" fill="#2C2D2E"/>
<path d="M9.47291 18.7135C9.47291 18.7135 20.0876 14.3573 23.768 12.8203C25.1785 12.2088 29.9677 10.2429 29.9677 10.2429C29.9677 10.2429 32.1757 9.39382 31.9887 11.4701C31.9295 12.3192 31.4367 15.3381 30.9486 18.5904C30.2099 23.1929 29.4126 28.2369 29.4126 28.2369C29.4126 28.2369 29.2926 29.6467 28.2491 29.8929C27.2055 30.1392 25.4891 29.0438 25.1795 28.7889C24.9373 28.6022 20.5811 25.8425 18.9846 24.4929C18.56 24.1236 18.0632 23.3889 19.0441 22.5312C21.2562 20.5061 23.8921 17.9882 25.4893 16.3961C26.2239 15.6571 26.9583 13.9377 23.8928 16.0267C19.5356 19.0193 15.2389 21.8426 15.2389 21.8426C15.2389 21.8426 14.258 22.4541 12.4196 21.9021C10.5812 21.3501 8.42843 20.6285 8.42843 20.6285C8.42843 20.6285 6.95507 19.7071 9.47291 18.7262V18.7135Z" fill="white"/>
</g>
<defs>
<clipPath id="clip0_2590_26305">
<rect width="40" height="40" rx="8" fill="white"/>
</clipPath>
</defs>
</svg>
