<svg width="24" height="24" viewBox="0 0 24 24" fill="none" xmlns="http://www.w3.org/2000/svg">
<path d="M9 2H15M5 7L19 21.5M12 10V14M6.19 8.5C4.7795 9.99151 3.99633 11.9682 4.00254 14.021C4.00875 16.0738 4.80385 18.0457 6.22335 19.5287C7.64284 21.0116 9.57809 21.8921 11.6287 21.9881C13.6793 22.084 15.6883 21.388 17.24 20.044M19.42 17C20.0031 15.561 20.1548 13.9834 19.8567 12.4596C19.5586 10.9358 18.8235 9.53173 17.7411 8.41856C16.6586 7.30539 15.2757 6.53127 13.7608 6.19059C12.246 5.84992 10.6648 5.95743 9.21 6.5" stroke="#2C2D2E" stroke-width="1.5" stroke-linecap="round" stroke-linejoin="round"/>
</svg>
