<svg width="40" height="40" viewBox="0 0 40 40" fill="none" xmlns="http://www.w3.org/2000/svg">
<g clip-path="url(#clip0_2590_26311)">
<path d="M34 0H6C2.68629 0 0 2.68629 0 6V34C0 37.3137 2.68629 40 6 40H34C37.3137 40 40 37.3137 40 34V6C40 2.68629 37.3137 0 34 0Z" fill="#2C2D2E"/>
<path d="M31.4559 13.7841C31.2049 14.5863 30.8376 15.3474 30.3659 16.0431L30.3849 16.0131C29.9369 16.7598 29.4019 17.6224 28.7799 18.6011C28.2466 19.3738 27.9643 19.7738 27.9329 19.8011C27.7904 19.9796 27.6982 20.193 27.6659 20.4191L27.6649 20.4261C27.6904 20.6299 27.785 20.8187 27.9329 20.9611L28.3329 21.4071C30.4729 23.6064 31.6766 25.1224 31.9439 25.9551C31.9946 26.0919 32.0109 26.239 31.9914 26.3836C31.9719 26.5281 31.9171 26.6657 31.8319 26.7841L31.8339 26.7811C31.7333 26.8849 31.6105 26.9648 31.4748 27.0149C31.3391 27.0649 31.1939 27.0838 31.0499 27.0701H31.0539H28.4179C28.0809 27.0701 27.7709 26.9521 27.5279 26.7561L27.5309 26.7581C27.184 26.4736 26.8655 26.1561 26.5799 25.8101L26.5709 25.7981C26.1103 25.2774 25.7016 24.8391 25.3449 24.4831C24.1569 23.3538 23.2803 22.7891 22.7149 22.7891C22.5325 22.7728 22.35 22.8205 22.1989 22.9241L22.2019 22.9221C22.137 23.0035 22.0894 23.0972 22.0619 23.1976C22.0344 23.298 22.0276 23.403 22.0419 23.5061V23.5021C22.0031 23.9687 21.9904 24.4371 22.0039 24.9051V24.8881V26.0471C22.0323 26.1855 22.0226 26.3291 21.9757 26.4624C21.9289 26.5958 21.8467 26.7139 21.7379 26.8041L21.7369 26.8051C21.2305 27.0339 20.673 27.126 20.1199 27.0721L20.1329 27.0731C18.6191 27.0471 17.1411 26.6087 15.8579 25.8051L15.8929 25.8251C14.4133 24.9331 13.1451 23.7304 12.1759 22.3001L12.1489 22.2581C11.2082 21.0036 10.3812 19.6676 9.67793 18.2661L9.60793 18.1121C9.13929 17.2045 8.7275 16.2687 8.37493 15.3101L8.31493 15.1251C8.15147 14.6274 8.04741 14.1122 8.00493 13.5901L8.00293 13.5651C8.00293 13.0598 8.30026 12.8071 8.89493 12.8071H11.5249C11.7908 12.7863 12.0548 12.8666 12.2639 13.0321L12.2619 13.0301C12.4619 13.2491 12.6099 13.5181 12.6829 13.8181L12.6859 13.8301C13.1204 15.0744 13.651 16.2831 14.2729 17.4451L14.2059 17.3081C14.6554 18.2211 15.1994 19.0845 15.8289 19.8841L15.8059 19.8531C16.3393 20.5078 16.7553 20.8351 17.0539 20.8351L17.0859 20.8361C17.1562 20.8362 17.2253 20.8178 17.2863 20.7827C17.3472 20.7475 17.3978 20.697 17.4329 20.6361L17.4339 20.6341C17.5297 20.3835 17.5676 20.1144 17.5449 19.8471V19.8531V15.9741C17.5262 15.5343 17.4173 15.103 17.2249 14.7071L17.2329 14.7261C17.1163 14.4745 16.9648 14.2405 16.7829 14.0311L16.7859 14.0351C16.6182 13.8677 16.5092 13.6506 16.4749 13.4161L16.4739 13.4101C16.4739 13.2401 16.5519 13.0871 16.6739 12.9871L16.6749 12.9861C16.8005 12.8711 16.9647 12.8076 17.1349 12.8081H21.2889C21.3932 12.7959 21.4989 12.8098 21.5964 12.8486C21.694 12.8873 21.7804 12.9497 21.8479 13.0301L21.8489 13.0311C21.9752 13.2645 22.0305 13.5297 22.0079 13.7941V13.7891V18.9621C21.992 19.1661 22.0395 19.3701 22.1439 19.5461L22.1419 19.5421C22.1786 19.5968 22.2281 19.6417 22.2862 19.6727C22.3442 19.7038 22.4091 19.7201 22.4749 19.7201H22.4759C22.6446 19.7091 22.8072 19.6532 22.9469 19.5581L22.9439 19.5601C23.2159 19.3731 23.4499 19.1601 23.6529 18.9191L23.6569 18.9141C24.2747 18.2151 24.8286 17.4621 25.3119 16.6641L25.3509 16.5941C25.6949 16.0241 26.0669 15.3221 26.4039 14.6011L26.4659 14.4541L26.9119 13.5621C26.9905 13.3315 27.1419 13.1327 27.3435 12.9957C27.545 12.8588 27.7856 12.7912 28.0289 12.8031H28.0259H30.6569C31.3676 12.8031 31.6343 13.1301 31.4569 13.7841H31.4559Z" fill="white"/>
</g>
<defs>
<clipPath id="clip0_2590_26311">
<rect width="40" height="40" rx="8" fill="white"/>
</clipPath>
</defs>
</svg>
