<svg width="40" height="40" viewBox="0 0 40 40" fill="none" xmlns="http://www.w3.org/2000/svg">
<g clip-path="url(#clip0_2590_26308)">
<path d="M34 0H6C2.68629 0 0 2.68629 0 6V34C0 37.3137 2.68629 40 6 40H34C37.3137 40 40 37.3137 40 34V6C40 2.68629 37.3137 0 34 0Z" fill="#2C2D2E"/>
<path d="M28.4883 11.5742C26.8106 9.90938 24.6794 8.77606 22.361 8.31594C20.0427 7.85581 17.6402 8.08931 15.4539 8.98722C13.2675 9.88514 11.3944 11.4076 10.0686 13.3643C8.74288 15.3211 8.02335 17.6252 8.00002 19.9886C7.99641 22.2317 8.63166 24.4294 9.83146 26.3246L10.1151 26.7806L8.90194 31.1788L13.43 29.9964L13.8879 30.252C15.7053 31.3222 17.7724 31.8953 19.8815 31.9135C21.9905 31.9316 24.0672 31.3944 25.9028 30.3556C27.7384 29.3168 29.2682 27.8132 30.3385 25.9958C31.4088 24.1784 31.9818 22.1113 32 20.0023C32.0043 18.4346 31.6959 16.8817 31.0929 15.4346C30.49 13.9875 29.6045 12.6751 28.4883 11.5742V11.5742ZM27.0781 25.1119C26.7805 25.9519 25.3383 26.7144 24.6426 26.8159C23.8788 26.9473 23.0949 26.8988 22.3532 26.6743C21.6553 26.4593 20.9692 26.2078 20.2976 25.9209C16.676 24.3686 14.3091 20.7801 14.1296 20.5382C13.9501 20.2963 12.6599 18.5942 12.6599 16.8309C12.6513 16.2731 12.7587 15.7197 12.9755 15.2056C13.1922 14.6916 13.5135 14.2283 13.9189 13.8451C14.0407 13.7077 14.1891 13.5964 14.3551 13.518C14.5212 13.4396 14.7014 13.3958 14.8849 13.3891C15.1184 13.3891 15.3383 13.38 15.5763 13.3891C15.8144 13.3982 16.0847 13.2842 16.3868 14.0008C16.689 14.7175 17.4078 16.48 17.4992 16.6627C17.5575 16.7557 17.5906 16.8622 17.5954 16.9718C17.6003 17.0814 17.5766 17.1904 17.5268 17.2881C17.4355 17.5028 17.3154 17.704 17.1697 17.8862C16.9866 18.0962 16.7804 18.3338 16.6249 18.5116C16.4694 18.6895 16.2584 18.886 16.4691 19.2422C17.0111 20.1647 17.6868 21.0017 18.4743 21.726C19.3317 22.4824 20.3144 23.0834 21.3783 23.502C21.74 23.68 21.9368 23.6479 22.1612 23.4105C22.5657 22.9638 22.9462 22.4959 23.3012 22.0089C23.5439 21.6489 23.7865 21.7123 24.1172 21.8308C24.4479 21.9494 26.2187 22.8124 26.5803 22.9951C26.942 23.1732 27.1847 23.2646 27.2627 23.4105C27.3715 23.9834 27.3072 24.5757 27.0781 25.1119Z" fill="white"/>
</g>
<defs>
<clipPath id="clip0_2590_26308">
<rect width="40" height="40" rx="8" fill="white"/>
</clipPath>
</defs>
</svg>
