<svg width="16" height="16" viewBox="0 0 16 16" fill="none" xmlns="http://www.w3.org/2000/svg">
<path d="M15.8283 9.50001V11C15.8283 11.1326 15.7756 11.2598 15.6818 11.3536C15.5881 11.4473 15.4609 11.5 15.3283 11.5H4.31577C3.77782 11.5019 3.25376 11.3293 2.82217 11.0081C2.39059 10.687 2.07476 10.2346 1.92202 9.71876L1.04077 6.78751C0.997007 6.6375 0.988337 6.47944 1.01543 6.32554C1.04252 6.17165 1.10466 6.02605 1.19702 5.90001C1.29147 5.77568 1.41339 5.67489 1.55326 5.6055C1.69312 5.53611 1.84714 5.5 2.00327 5.50001H3.07827C3.15127 5.50016 3.22332 5.51649 3.28924 5.54783C3.35517 5.57917 3.41332 5.62474 3.45952 5.68126L4.55952 7.00001H5.63452L5.07202 5.31876C5.02139 5.16818 5.00735 5.00771 5.03108 4.85064C5.05481 4.69356 5.11562 4.54439 5.20847 4.4155C5.30133 4.2866 5.42355 4.18168 5.56503 4.10943C5.70651 4.03717 5.86316 3.99966 6.02202 4.00001H7.07827C7.14771 3.99964 7.21644 4.01393 7.27998 4.04193C7.34352 4.06993 7.40044 4.11101 7.44702 4.16251L10.047 7.00001H13.3283C13.9913 7.00001 14.6272 7.2634 15.096 7.73224C15.5649 8.20108 15.8283 8.83697 15.8283 9.50001ZM14.8283 9.50001C14.8266 9.10269 14.6681 8.72211 14.3871 8.44116C14.1062 8.16022 13.7256 8.00165 13.3283 8.00001H9.82827C9.75884 8.00037 9.69011 7.98609 9.62657 7.95809C9.56303 7.93009 9.50611 7.889 9.45952 7.83751L6.85952 5.00001H6.02202L6.80327 7.34376C6.82774 7.41892 6.83427 7.49878 6.82233 7.57692C6.81039 7.65506 6.78032 7.72933 6.73452 7.79376C6.68835 7.85823 6.62732 7.91064 6.55661 7.94654C6.48589 7.98244 6.40757 8.00078 6.32827 8.00001H4.32827C4.25528 7.99986 4.18322 7.98352 4.1173 7.95218C4.05138 7.92084 3.99322 7.87527 3.94702 7.81876L2.84702 6.50001H1.99702L2.87827 9.43126C2.97015 9.74085 3.15989 10.0123 3.41905 10.205C3.67821 10.3977 3.99284 10.5012 4.31577 10.5H14.8283V9.50001Z" fill="#2C2D2E"/>
</svg>
