<svg width="16" height="16" viewBox="0 0 16 16" fill="none" xmlns="http://www.w3.org/2000/svg">
<path d="M13.3334 6.66665C13.3334 9.61198 8.00002 14.6666 8.00002 14.6666C8.00002 14.6666 2.66669 9.61198 2.66669 6.66665C2.66669 5.25216 3.22859 3.8956 4.22878 2.89541C5.22898 1.89522 6.58553 1.33331 8.00002 1.33331C9.41451 1.33331 10.7711 1.89522 11.7713 2.89541C12.7715 3.8956 13.3334 5.25216 13.3334 6.66665V6.66665Z" stroke="url(#paint0_linear_2695_38247)"/>
<path d="M7.99998 7.33333C8.17679 7.33333 8.34636 7.2631 8.47138 7.13807C8.59641 7.01305 8.66665 6.84348 8.66665 6.66667C8.66665 6.48986 8.59641 6.32029 8.47138 6.19526C8.34636 6.07024 8.17679 6 7.99998 6C7.82317 6 7.6536 6.07024 7.52858 6.19526C7.40355 6.32029 7.33331 6.48986 7.33331 6.66667C7.33331 6.84348 7.40355 7.01305 7.52858 7.13807C7.6536 7.2631 7.82317 7.33333 7.99998 7.33333Z" fill="url(#paint1_linear_2695_38247)" stroke="url(#paint2_linear_2695_38247)" stroke-linecap="round" stroke-linejoin="round"/>
<defs>
<linearGradient id="paint0_linear_2695_38247" x1="2.66669" y1="1.33331" x2="14.4821" y2="1.7405" gradientUnits="userSpaceOnUse">
<stop stop-color="#AE5FFF"/>
<stop offset="0.0001" stop-color="#AE5FFF"/>
<stop offset="0.0002" stop-color="#AE5FFF"/>
<stop offset="1" stop-color="#6B1EFF"/>
</linearGradient>
<linearGradient id="paint1_linear_2695_38247" x1="7.33331" y1="6" x2="8.80926" y2="6.06358" gradientUnits="userSpaceOnUse">
<stop stop-color="#AE5FFF"/>
<stop offset="0.0001" stop-color="#AE5FFF"/>
<stop offset="0.0002" stop-color="#AE5FFF"/>
<stop offset="1" stop-color="#6B1EFF"/>
</linearGradient>
<linearGradient id="paint2_linear_2695_38247" x1="7.33331" y1="6" x2="8.80926" y2="6.06358" gradientUnits="userSpaceOnUse">
<stop stop-color="#AE5FFF"/>
<stop offset="0.0001" stop-color="#AE5FFF"/>
<stop offset="0.0002" stop-color="#AE5FFF"/>
<stop offset="1" stop-color="#6B1EFF"/>
</linearGradient>
</defs>
</svg>
